<svg width="1024" height="1024" viewBox="0 0 1024 1024" xmlns="http://www.w3.org/2000/svg">
  <defs>
    <linearGradient id="go" gradientUnits="userSpaceOnUse" x1="-170" y1="-250" x2="180" y2="210">
      <stop offset="0" stop-color="#FDE9A8"/><stop offset="0.45" stop-color="#F4B73C"/><stop offset="1" stop-color="#C77A12"/>
    </linearGradient>
    <linearGradient id="goK" gradientUnits="userSpaceOnUse" x1="0" y1="-150" x2="130" y2="100">
      <stop offset="0" stop-color="#FFF1C2"/><stop offset="1" stop-color="#E8961A"/>
    </linearGradient>
    <radialGradient id="bg" cx="0.5" cy="0.4" r="0.85">
      <stop offset="0" stop-color="#0E1726"/><stop offset="1" stop-color="#05080B"/>
    </radialGradient>
    <radialGradient id="ringg" gradientUnits="userSpaceOnUse" cx="0" cy="0" r="420">
      <stop offset="0" stop-color="#F4B73C"/><stop offset="1" stop-color="#C77A12"/>
    </radialGradient>
  </defs>

  <rect width="1024" height="1024" fill="url(#bg)"/>

  <g transform="translate(512,512)" stroke-linecap="round" stroke-linejoin="round" fill="none">
    <!-- Anel do selo -->
    <circle r="418" fill="#0A111C" stroke="url(#ringg)" stroke-width="6" opacity="0.95"/>
    <circle r="376" stroke="url(#ringg)" stroke-width="2" opacity="0.4"/>
    <circle cx="0" cy="-418" r="7" fill="#F4B73C"/>
    <circle cx="0" cy="418" r="7" fill="#F4B73C"/>

    <!-- CRUZ-ÂNCORA (fé + esperança) -->
    <line x1="0" y1="-250" x2="0" y2="160" stroke="url(#go)" stroke-width="40"/>
    <line x1="-92" y1="-150" x2="92" y2="-150" stroke="url(#go)" stroke-width="40"/>
    <path d="M-168 60 Q0 250 168 60" stroke="url(#go)" stroke-width="40"/>
    <path d="M-168 60 L-150 18 M-168 60 L-126 48" stroke="url(#go)" stroke-width="34"/>
    <path d="M168 60 L150 18 M168 60 L126 48" stroke="url(#go)" stroke-width="34"/>

    <!-- K integrado (seu nome) -->
    <path d="M0 -30 L118 -150" stroke="url(#goK)" stroke-width="36"/>
    <path d="M0 -30 L118 86" stroke="url(#goK)" stroke-width="36"/>
  </g>
</svg>
